<svg width="35" height="35" viewBox="0 0 35 35" fill="none" xmlns="http://www.w3.org/2000/svg">
<path d="M14 15.5556H1.75C1.28587 15.5556 0.840752 15.7604 0.512563 16.1251C0.184374 16.4897 0 16.9843 0 17.5C0 18.0157 0.184374 18.5103 0.512563 18.8749C0.840752 19.2396 1.28587 19.4444 1.75 19.4444H14C14.4641 19.4444 14.9092 19.2396 15.2374 18.8749C15.5656 18.5103 15.75 18.0157 15.75 17.5C15.75 16.9843 15.5656 16.4897 15.2374 16.1251C14.9092 15.7604 14.4641 15.5556 14 15.5556ZM14 31.1111H1.75C1.28587 31.1111 0.840752 31.316 0.512563 31.6806C0.184374 32.0453 0 32.5399 0 33.0556C0 33.5713 0.184374 34.0658 0.512563 34.4305C0.840752 34.7951 1.28587 35 1.75 35H14C14.4641 35 14.9092 34.7951 15.2374 34.4305C15.5656 34.0658 15.75 33.5713 15.75 33.0556C15.75 32.5399 15.5656 32.0453 15.2374 31.6806C14.9092 31.316 14.4641 31.1111 14 31.1111ZM21 3.88889H33.25C33.7141 3.88889 34.1592 3.68403 34.4874 3.31937C34.8156 2.95472 35 2.46014 35 1.94444C35 1.42875 34.8156 0.934169 34.4874 0.569514C34.1592 0.20486 33.7141 0 33.25 0H21C20.5359 0 20.0908 0.20486 19.7626 0.569514C19.4344 0.934169 19.25 1.42875 19.25 1.94444C19.25 2.46014 19.4344 2.95472 19.7626 3.31937C20.0908 3.68403 20.5359 3.88889 21 3.88889ZM14 7.77778H1.75C1.28587 7.77778 0.840752 7.98264 0.512563 8.34729C0.184374 8.71195 0 9.20652 0 9.72222C0 10.2379 0.184374 10.7325 0.512563 11.0972C0.840752 11.4618 1.28587 11.6667 1.75 11.6667H14C14.4641 11.6667 14.9092 11.4618 15.2374 11.0972C15.5656 10.7325 15.75 10.2379 15.75 9.72222C15.75 9.20652 15.5656 8.71195 15.2374 8.34729C14.9092 7.98264 14.4641 7.77778 14 7.77778ZM14 23.3333H1.75C1.28587 23.3333 0.840752 23.5382 0.512563 23.9028C0.184374 24.2675 0 24.7621 0 25.2778C0 25.7935 0.184374 26.2881 0.512563 26.6527C0.840752 27.0174 1.28587 27.2222 1.75 27.2222H14C14.4641 27.2222 14.9092 27.0174 15.2374 26.6527C15.5656 26.2881 15.75 25.7935 15.75 25.2778C15.75 24.7621 15.5656 24.2675 15.2374 23.9028C14.9092 23.5382 14.4641 23.3333 14 23.3333ZM14 0H8.75C8.28587 0 7.84075 0.20486 7.51256 0.569514C7.18437 0.934169 7 1.42875 7 1.94444C7 2.46014 7.18437 2.95472 7.51256 3.31937C7.84075 3.68403 8.28587 3.88889 8.75 3.88889H14C14.4641 3.88889 14.9092 3.68403 15.2374 3.31937C15.5656 2.95472 15.75 2.46014 15.75 1.94444C15.75 1.42875 15.5656 0.934169 15.2374 0.569514C14.9092 0.20486 14.4641 0 14 0ZM33.25 7.77778H21C20.5359 7.77778 20.0908 7.98264 19.7626 8.34729C19.4344 8.71195 19.25 9.20652 19.25 9.72222C19.25 10.2379 19.4344 10.7325 19.7626 11.0972C20.0908 11.4618 20.5359 11.6667 21 11.6667H33.25C33.7141 11.6667 34.1592 11.4618 34.4874 11.0972C34.8156 10.7325 35 10.2379 35 9.72222C35 9.20652 34.8156 8.71195 34.4874 8.34729C34.1592 7.98264 33.7141 7.77778 33.25 7.77778ZM33.25 15.5556H21C20.5359 15.5556 20.0908 15.7604 19.7626 16.1251C19.4344 16.4897 19.25 16.9843 19.25 17.5C19.25 18.0157 19.4344 18.5103 19.7626 18.8749C20.0908 19.2396 20.5359 19.4444 21 19.4444H33.25C33.7141 19.4444 34.1592 19.2396 34.4874 18.8749C34.8156 18.5103 35 18.0157 35 17.5C35 16.9843 34.8156 16.4897 34.4874 16.1251C34.1592 15.7604 33.7141 15.5556 33.25 15.5556ZM26.25 31.1111H21C20.5359 31.1111 20.0908 31.316 19.7626 31.6806C19.4344 32.0453 19.25 32.5399 19.25 33.0556C19.25 33.5713 19.4344 34.0658 19.7626 34.4305C20.0908 34.7951 20.5359 35 21 35H26.25C26.7141 35 27.1592 34.7951 27.4874 34.4305C27.8156 34.0658 28 33.5713 28 33.0556C28 32.5399 27.8156 32.0453 27.4874 31.6806C27.1592 31.316 26.7141 31.1111 26.25 31.1111ZM33.25 23.3333H21C20.5359 23.3333 20.0908 23.5382 19.7626 23.9028C19.4344 24.2675 19.25 24.7621 19.25 25.2778C19.25 25.7935 19.4344 26.2881 19.7626 26.6527C20.0908 27.0174 20.5359 27.2222 21 27.2222H33.25C33.7141 27.2222 34.1592 27.0174 34.4874 26.6527C34.8156 26.2881 35 25.7935 35 25.2778C35 24.7621 34.8156 24.2675 34.4874 23.9028C34.1592 23.5382 33.7141 23.3333 33.25 23.3333Z" fill="black"/>
</svg>
