<svg width="35" height="40" viewBox="0 0 35 40" fill="none" xmlns="http://www.w3.org/2000/svg">
<path d="M0 1.875C0 2.91 0.98 3.75 2.1875 3.75H32.8125C33.3927 3.75 33.9491 3.55246 34.3593 3.20083C34.7695 2.84919 35 2.37228 35 1.875C35 1.37772 34.7695 0.900805 34.3593 0.549175C33.9491 0.197544 33.3927 1.04794e-08 32.8125 0H2.1875C1.60734 0 1.05094 0.197544 0.640704 0.549175C0.230468 0.900805 0 1.37772 0 1.875ZM0 38.125C0 39.16 0.98 40 2.1875 40H6.01708C6.59725 40 7.15364 39.8025 7.56388 39.4508C7.97411 39.0992 8.20458 38.6223 8.20458 38.125C8.20458 37.6277 7.97411 37.1508 7.56388 36.7992C7.15364 36.4475 6.59725 36.25 6.01708 36.25H2.1875C1.60734 36.25 1.05094 36.4475 0.640704 36.7992C0.230468 37.1508 0 37.6277 0 38.125ZM11.4858 38.125C11.4858 39.16 12.4629 40 13.6733 40H21.3267C21.9068 40 22.4632 39.8025 22.8735 39.4508C23.2837 39.0992 23.5142 38.6223 23.5142 38.125C23.5142 37.6277 23.2837 37.1508 22.8735 36.7992C22.4632 36.4475 21.9068 36.25 21.3267 36.25H13.6763C13.0961 36.25 12.5397 36.4475 12.1295 36.7992C11.7192 37.1508 11.4858 37.6277 11.4858 38.125ZM26.8013 38.125C26.8013 39.16 27.7783 40 28.9888 40H32.8125C33.3927 40 33.9491 39.8025 34.3593 39.4508C34.7695 39.0992 35 38.6223 35 38.125C35 37.6277 34.7695 37.1508 34.3593 36.7992C33.9491 36.4475 33.3927 36.25 32.8125 36.25H28.9858C28.4057 36.25 27.8493 36.4475 27.439 36.7992C27.0288 37.1508 26.7983 37.6277 26.7983 38.125M19.0458 33.2C18.6357 33.5511 18.0797 33.7484 17.5 33.7484C16.9203 33.7484 16.3643 33.5511 15.9542 33.2L3.55833 22.575C3.34341 22.4033 3.17103 22.1963 3.05147 21.9663C2.93191 21.7363 2.86762 21.4881 2.86244 21.2363C2.85726 20.9845 2.91129 20.7345 3.02131 20.501C3.13133 20.2675 3.29508 20.0555 3.5028 19.8774C3.71053 19.6994 3.95796 19.559 4.23034 19.4647C4.50272 19.3704 4.79447 19.3241 5.08819 19.3285C5.38191 19.333 5.67157 19.3881 5.9399 19.4905C6.20823 19.593 6.44974 19.7408 6.65 19.925L15.3125 27.35V9.375C15.3125 8.87772 15.543 8.40081 15.9532 8.04917C16.3634 7.69754 16.9198 7.5 17.5 7.5C18.0802 7.5 18.6366 7.69754 19.0468 8.04917C19.457 8.40081 19.6875 8.87772 19.6875 9.375V27.35L28.35 19.925C28.5503 19.7408 28.7918 19.593 29.0601 19.4905C29.3284 19.3881 29.6181 19.333 29.9118 19.3285C30.2055 19.3241 30.4973 19.3704 30.7697 19.4647C31.042 19.559 31.2895 19.6994 31.4972 19.8774C31.7049 20.0555 31.8687 20.2675 31.9787 20.501C32.0887 20.7345 32.1427 20.9845 32.1376 21.2363C32.1324 21.4881 32.0681 21.7363 31.9485 21.9663C31.829 22.1963 31.6566 22.4033 31.4417 22.575L19.0458 33.2Z" fill="black"/>
</svg>
