<svg width="39" height="39" viewBox="0 0 39 39" fill="none" xmlns="http://www.w3.org/2000/svg">
<path d="M19.5175 29.3178C24.834 29.3178 29.1425 25.1134 29.1425 19.9273C29.1425 14.7403 24.834 10.5368 19.5175 10.5368C14.2019 10.5368 9.89252 14.7403 9.89252 19.9273C9.89252 25.1134 14.2019 29.3178 19.5175 29.3178Z" stroke="black" stroke-width="2.91667" stroke-linejoin="round"/>
<path d="M32.59 6.82837L30.4375 8.94037M8.18362 30.5052L6.39337 32.2629M19.5 34.4389V37M37 19.0735H33.5M31.3405 30.156L33.5 32.2629" stroke="black" stroke-width="2.91667" stroke-linecap="round"/>
<path fill-rule="evenodd" clip-rule="evenodd" d="M19.5175 13.9515C18.7132 13.9515 17.9167 14.1061 17.1736 14.4064C16.4305 14.7067 15.7552 15.1469 15.1865 15.7018C14.6177 16.2567 14.1666 16.9154 13.8588 17.6404C13.5509 18.3655 13.3925 19.1425 13.3925 19.9273C13.3925 20.712 13.5509 21.4891 13.8588 22.2141C14.1666 22.9391 14.6177 23.5979 15.1865 24.1528C15.7552 24.7077 16.4305 25.1478 17.1736 25.4481C17.9167 25.7485 18.7132 25.903 19.5175 25.903" fill="black"/>
<path d="M2 19.9273H5.5M7.2885 6.82841L9.08488 8.58101M19.5 2V5.41472" stroke="black" stroke-width="2.91667" stroke-linecap="round"/>
</svg>
