<svg width="35" height="35" viewBox="0 0 35 35" fill="none" xmlns="http://www.w3.org/2000/svg">
<path d="M17.5 35C15.0792 35 12.8042 34.5403 10.675 33.621C8.54583 32.7017 6.69375 31.4551 5.11875 29.8812C3.54375 28.3062 2.29717 26.4542 1.379 24.325C0.460833 22.1958 0.00116667 19.9208 0 17.5C0 15.0792 0.459667 12.8042 1.379 10.675C2.29833 8.54583 3.54492 6.69375 5.11875 5.11875C6.69375 3.54375 8.54583 2.29717 10.675 1.379C12.8042 0.460833 15.0792 0.00116667 17.5 0C19.9208 0 22.1958 0.459667 24.325 1.379C26.4542 2.29833 28.3062 3.54492 29.8812 5.11875C31.4562 6.69375 32.7034 8.54583 33.6227 10.675C34.5421 12.8042 35.0012 15.0792 35 17.5C35 19.9208 34.5403 22.1958 33.621 24.325C32.7017 26.4542 31.4551 28.3062 29.8812 29.8812C28.3062 31.4562 26.4542 32.7034 24.325 33.6227C22.1958 34.5421 19.9208 35.0012 17.5 35ZM19.25 31.3687C22.7208 30.9312 25.6305 29.407 27.979 26.796C30.3275 24.185 31.5012 21.0863 31.5 17.5C31.5 13.9125 30.3257 10.8138 27.9772 8.204C25.6287 5.59417 22.7197 4.06992 19.25 3.63125V31.3687Z" fill="black"/>
</svg>
