<svg width="35" height="35" viewBox="0 0 35 35" fill="none" xmlns="http://www.w3.org/2000/svg">
<path d="M25.0579 6.92077C24.6584 7.23835 24.1394 7.39557 23.6151 7.35783C23.0908 7.3201 22.6041 7.09051 22.2621 6.71956C21.9201 6.34862 21.7507 5.86671 21.7914 5.37985C21.832 4.893 22.0793 4.44107 22.4787 4.12349L27.1032 0.442848C27.4623 0.157075 27.9197 0 28.3927 0C28.8657 0 29.3231 0.157075 29.6823 0.442848L34.3067 4.12349C34.5045 4.28074 34.667 4.47262 34.785 4.68819C34.9029 4.90376 34.9739 5.13879 34.9941 5.37985C35.0142 5.62092 34.983 5.86331 34.9022 6.09318C34.8215 6.32305 34.6927 6.53589 34.5234 6.71956C34.354 6.90324 34.1474 7.05414 33.9152 7.16365C33.6831 7.27317 33.43 7.33915 33.1704 7.35783C32.9108 7.37652 32.6497 7.34754 32.4022 7.27255C32.1546 7.19756 31.9254 7.07802 31.7276 6.92077L28.3927 4.26335L25.0579 6.92077ZM13.8588 4.29525C13.4654 4.29532 13.081 4.4041 12.7544 4.60773C12.4278 4.81136 12.1739 5.10062 12.0249 5.4387L0.133548 32.4301C-0.0537548 32.8795 -0.0436939 33.3793 0.161569 33.822C0.366831 34.2646 0.750913 34.6149 1.23128 34.7974C1.71164 34.9799 2.24995 34.9802 2.73053 34.7982C3.21111 34.6161 3.5956 34.2663 3.80137 33.8238L7.62247 25.1522H20.0952L23.9163 33.8238C24.0114 34.052 24.1545 34.2602 24.3373 34.4364C24.5201 34.6126 24.7389 34.7532 24.9808 34.85C25.2228 34.9467 25.4832 34.9977 25.7466 34.9999C26.0101 35.0021 26.2714 34.9556 26.5152 34.8629C26.7591 34.7702 26.9806 34.6334 27.1668 34.4603C27.353 34.2872 27.5002 34.0814 27.5997 33.8548C27.6992 33.6283 27.7491 33.3856 27.7464 33.141C27.7437 32.8964 27.6886 32.6547 27.5841 32.4301L15.6927 5.4387C15.5438 5.10062 15.2898 4.81136 14.9633 4.60773C14.6367 4.4041 14.2522 4.29532 13.8588 4.29525ZM13.8588 10.994L18.4727 21.4716H9.24762L13.8588 10.994Z" fill="black"/>
</svg>
