<svg width="35" height="35" viewBox="0 0 35 35" fill="none" xmlns="http://www.w3.org/2000/svg">
<path d="M3.88889 35C2.81944 35 1.90426 34.6195 1.14333 33.8586C0.382407 33.0977 0.0012963 32.1818 0 31.1111V3.88889C0 2.81944 0.381111 1.90426 1.14333 1.14333C1.90556 0.382407 2.82074 0.0012963 3.88889 0H31.1111C32.1806 0 33.0964 0.381111 33.8586 1.14333C34.6208 1.90556 35.0013 2.82074 35 3.88889V31.1111C35 32.1806 34.6195 33.0964 33.8586 33.8586C33.0977 34.6208 32.1818 35.0013 31.1111 35H3.88889ZM3.88889 31.1111H31.1111V3.88889H3.88889V31.1111ZM5.83333 27.2222H29.1667L21.875 17.5L16.0417 25.2778L11.6667 19.4444L5.83333 27.2222Z" fill="black"/>
<path d="M27.7749 17.6421L23.6224 13.6257C23.2928 13.8807 22.9138 14.0826 22.4854 14.2313C22.0569 14.3801 21.601 14.4545 21.1177 14.4545C19.9203 14.4545 18.9069 14.0533 18.0778 13.2508C17.2486 12.4484 16.8338 11.4683 16.8333 10.3106C16.8333 9.15242 17.2481 8.17233 18.0778 7.37033C18.9074 6.56833 19.9207 6.16711 21.1177 6.16669C22.3151 6.16669 23.3286 6.5679 24.1583 7.37033C24.9879 8.17276 25.4025 9.15284 25.402 10.3106C25.402 10.7781 25.3252 11.2191 25.1714 11.6334C25.0176 12.0478 24.8088 12.4144 24.5452 12.7332L28.6977 16.7496L27.7749 17.6421ZM21.1177 13.1794C21.9416 13.1794 22.642 12.9006 23.219 12.343C23.796 11.7854 24.0842 11.1079 24.0838 10.3106C24.0838 9.51368 23.7955 8.83642 23.219 8.2788C22.6425 7.72118 21.942 7.44216 21.1177 7.44173C20.2938 7.44173 19.5935 7.72075 19.017 8.2788C18.4405 8.83684 18.152 9.51411 18.1516 10.3106C18.1516 11.1075 18.4401 11.785 19.017 12.343C19.594 12.9011 20.2942 13.1799 21.1177 13.1794ZM20.4585 12.2232V10.9481H19.1403V9.67306H20.4585V8.39802H21.7768V9.67306H23.0951V10.9481H21.7768V12.2232H20.4585Z" fill="black"/>
</svg>
