<svg width="35" height="35" viewBox="0 0 35 35" fill="none" xmlns="http://www.w3.org/2000/svg">
<path d="M7.83854 34.4643C7.47396 34.8214 7.04861 35 6.5625 35C6.07639 35 5.65104 34.8214 5.28646 34.4643L0.546875 29.8214C0.182292 29.4643 0 29.0476 0 28.5714C0 28.0952 0.182292 27.6786 0.546875 27.3214L5.28646 22.6786C5.65104 22.3214 6.07639 22.1429 6.5625 22.1429C7.04861 22.1429 7.47396 22.3214 7.83854 22.6786C8.20312 23.0357 8.38542 23.4601 8.38542 23.9518C8.38542 24.4435 8.20312 24.8673 7.83854 25.2232L6.24349 26.7857H28.7565L27.1615 25.2232C26.8273 24.8661 26.6523 24.4423 26.6365 23.9518C26.6207 23.4613 26.7957 23.0369 27.1615 22.6786C27.526 22.3214 27.9514 22.1429 28.4375 22.1429C28.9236 22.1429 29.349 22.3214 29.7135 22.6786L34.4531 27.3214C34.8177 27.6786 35 28.0952 35 28.5714C35 29.0476 34.8177 29.4643 34.4531 29.8214L29.7135 34.4643C29.349 34.8214 28.9236 35 28.4375 35C27.9514 35 27.526 34.8214 27.1615 34.4643C26.7969 34.1071 26.6146 33.6833 26.6146 33.1929C26.6146 32.7024 26.7969 32.278 27.1615 31.9196L28.7565 30.3571H6.24349L7.83854 31.9196C8.17274 32.2768 8.34714 32.7012 8.36172 33.1929C8.3763 33.6845 8.20191 34.1083 7.83854 34.4643ZM9.02344 17.5L15.2669 1.07144C15.3885 0.744058 15.5938 0.483344 15.8831 0.289296C16.1723 0.0952488 16.4986 -0.00117959 16.862 1.08885e-05H18.138C18.5026 1.08885e-05 18.8295 0.0970349 19.1187 0.291082C19.408 0.48513 19.6128 0.745249 19.7331 1.07144L25.9766 17.5446C26.1589 18.0506 26.0981 18.5268 25.7943 18.9732C25.4905 19.4196 25.0651 19.6429 24.5182 19.6429C24.184 19.6429 23.8729 19.5464 23.5849 19.3536C23.2969 19.1607 23.0915 18.9 22.9688 18.5714L21.6016 14.6429H13.4896L12.0312 18.6161C11.9097 18.9435 11.7122 19.1964 11.4388 19.375C11.1654 19.5536 10.8615 19.6429 10.5273 19.6429C9.95009 19.6429 9.50226 19.4125 9.18385 18.9518C8.86545 18.4911 8.81198 18.0071 9.02344 17.5ZM14.4922 11.7857H20.5078L17.5911 3.66072H17.4089L14.4922 11.7857Z" fill="black"/>
</svg>
