<svg width="35" height="35" viewBox="0 0 35 35" fill="none" xmlns="http://www.w3.org/2000/svg">
<path d="M18.9671 27.9116C19.1628 28.1066 19.3182 28.3384 19.4241 28.5935C19.5301 28.8487 19.5847 29.1223 19.5847 29.3986C19.5847 29.6749 19.5301 29.9484 19.4241 30.2036C19.3182 30.4588 19.1628 30.6905 18.9671 30.8856L17.9277 31.9247C15.9583 33.8938 13.2871 35 10.5018 35C7.71657 35 5.04539 33.8938 3.07592 31.9247C1.10644 29.9556 0 27.285 0 24.5003C0 21.7156 1.10644 19.0449 3.07592 17.0758L7.2963 12.858C9.18862 10.9614 11.7347 9.85998 14.4129 9.77932C17.0911 9.69866 19.6989 10.6449 21.7019 12.4242C21.9088 12.608 22.0773 12.8307 22.198 13.0796C22.3187 13.3285 22.3892 13.5988 22.4055 13.875C22.4217 14.1511 22.3834 14.4278 22.2927 14.6891C22.202 14.9505 22.0607 15.1914 21.8769 15.3982C21.6931 15.6049 21.4703 15.7735 21.2214 15.8942C20.9724 16.0148 20.7021 16.0853 20.4259 16.1016C20.1497 16.1178 19.873 16.0795 19.6115 15.9888C19.3501 15.8982 19.1092 15.7569 18.9024 15.5731C17.7012 14.5065 16.1378 13.9391 14.532 13.9869C12.9263 14.0347 11.3994 14.6941 10.2639 15.8303L6.04698 20.0428C4.86548 21.2241 4.20172 22.8262 4.20172 24.4968C4.20172 26.1673 4.86548 27.7695 6.04698 28.9507C7.22848 30.132 8.83094 30.7956 10.5018 30.7956C12.1727 30.7956 13.7752 30.132 14.9567 28.9507L15.996 27.9116C16.191 27.7164 16.4226 27.5616 16.6775 27.4559C16.9324 27.3503 17.2056 27.2959 17.4816 27.2959C17.7575 27.2959 18.0307 27.3503 18.2856 27.4559C18.5405 27.5616 18.7721 27.7164 18.9671 27.9116ZM31.9292 3.07018C29.9581 1.10413 27.2875 0 24.5033 0C21.719 0 19.0485 1.10413 17.0774 3.07018L16.038 4.10932C15.6436 4.5037 15.422 5.03858 15.422 5.59631C15.422 6.15404 15.6436 6.68892 16.038 7.08329C16.4325 7.47767 16.9675 7.69922 17.5253 7.69922C18.0831 7.69922 18.6181 7.47767 19.0126 7.08329L20.0519 6.04415C21.2334 4.86289 22.8359 4.19926 24.5068 4.19926C26.1777 4.19926 27.7801 4.86289 28.9616 6.04415C30.1431 7.22542 30.8069 8.82755 30.8069 10.4981C30.8069 12.1687 30.1431 13.7708 28.9616 14.9521L24.743 19.1716C23.6064 20.3073 22.0788 20.9657 20.4726 21.0122C18.8664 21.0587 17.3032 20.4898 16.1028 19.4218C15.896 19.238 15.655 19.0967 15.3936 19.0061C15.1322 18.9154 14.8555 18.8771 14.5792 18.8933C14.303 18.9096 14.0327 18.98 13.7838 19.1007C13.5348 19.2214 13.312 19.39 13.1282 19.5967C12.9444 19.8035 12.8031 20.0444 12.7124 20.3058C12.6217 20.5671 12.5834 20.8438 12.5996 21.1199C12.6159 21.3961 12.6864 21.6663 12.8071 21.9153C12.9278 22.1642 13.0964 22.3869 13.3032 22.5707C15.3048 24.3496 17.9108 25.2964 20.5878 25.2174C23.2648 25.1384 25.8104 24.0395 27.7036 22.1456L31.924 17.9278C33.8927 15.9576 34.999 13.2868 35 10.5018C35.001 7.71684 33.8966 5.04528 31.9292 3.07368V3.07018Z" fill="black"/>
</svg>
