<svg width="35" height="35" viewBox="0 0 35 35" fill="none" xmlns="http://www.w3.org/2000/svg">
<path d="M21 3.5H3.5V21H0V3.5C0 2.57174 0.368749 1.6815 1.02513 1.02513C1.6815 0.368749 2.57174 0 3.5 0H21V3.5ZM28 7H10.5C9.57174 7 8.6815 7.36875 8.02513 8.02513C7.36875 8.6815 7 9.57174 7 10.5V28H10.5V10.5H28V7ZM35 17.5V31.5C35 32.4283 34.6313 33.3185 33.9749 33.9749C33.3185 34.6313 32.4283 35 31.5 35H17.5C16.5717 35 15.6815 34.6313 15.0251 33.9749C14.3687 33.3185 14 32.4283 14 31.5V17.5C14 16.5717 14.3687 15.6815 15.0251 15.0251C15.6815 14.3687 16.5717 14 17.5 14H31.5C32.4283 14 33.3185 14.3687 33.9749 15.0251C34.6313 15.6815 35 16.5717 35 17.5ZM31.5 22.75H17.5V26.25H31.5V22.75Z" fill="black"/>
</svg>
