<svg width="29" height="38" viewBox="0 0 29 38" fill="none" xmlns="http://www.w3.org/2000/svg">
<path fill-rule="evenodd" clip-rule="evenodd" d="M13.8975 1.87335L12.5725 0.54835C12.9241 0.197224 13.4006 0 13.8975 0C14.3944 0 14.8709 0.197224 15.2225 0.54835L13.8975 1.87335ZM13.8975 31.2484C11.8025 31.2484 8.7175 30.4284 6.9075 28.7984C5.03742 27.117 3.9026 24.7684 3.7475 22.2584C3.76 20.5734 4.375 18.5634 5.4375 16.3884C6.495 14.2184 7.9275 12.0284 9.3925 10.0534C10.8009 8.16077 12.3045 6.34092 13.8975 4.60085V31.2484ZM13.8975 1.87335L15.2225 0.54835L15.2275 0.55085L15.235 0.56085L15.265 0.58835L15.3725 0.70085L15.7725 1.11335C17.7861 3.2339 19.6711 5.47289 21.4175 7.81835C22.9575 9.90085 24.5325 12.2934 25.7275 14.7434C26.91 17.1659 27.7975 19.7934 27.7975 22.3059L27.795 22.4109C27.5982 25.9304 26.0163 29.229 23.395 31.5859C20.7025 34.0134 16.615 34.9984 13.8975 34.9984C11.185 34.9984 7.0975 34.0134 4.4 31.5884C3.08952 30.4087 2.02591 28.9809 1.27067 27.3876C0.515434 25.7943 0.0835514 24.0671 0 22.3059C0 19.7934 0.885 17.1659 2.07 14.7409C3.265 12.2909 4.8375 9.90085 6.38 7.81835C8.24112 5.32006 10.2594 2.94275 12.4225 0.70085L12.53 0.58835L12.56 0.56085L12.5675 0.55085L12.5725 0.54835L13.8975 1.87335Z" fill="black"/>
<line x1="3.18609" y1="6.08174" x2="27.1861" y2="37.0817" stroke="white" stroke-width="3"/>
<line x1="1.18609" y1="6.08174" x2="25.1861" y2="37.0817" stroke="black" stroke-width="3"/>
</svg>
