<svg width="36" height="36" viewBox="0 0 36 36" fill="none" xmlns="http://www.w3.org/2000/svg">
<path d="M10.384 0.807075C10.7248 1.14367 10.9163 1.60012 10.9163 2.07606C10.9163 2.552 10.7248 3.00846 10.384 3.34505L7.12394 6.56329H21.3714C24.2482 6.56329 27.0605 7.40544 29.4525 8.98324C31.8445 10.561 33.7088 12.8036 34.8098 15.4274C35.9107 18.0512 36.1987 20.9383 35.6375 23.7237C35.0763 26.5091 33.6909 29.0677 31.6567 31.0759C29.6224 33.084 27.0307 34.4516 24.2091 35.0056C21.3875 35.5597 18.4629 35.2753 15.805 34.1885C13.1471 33.1017 10.8754 31.2613 9.27714 28.8999C7.67884 26.5386 6.82576 23.7624 6.82576 20.9224C6.82576 20.4464 7.01732 19.9898 7.3583 19.6532C7.69928 19.3166 8.16174 19.1275 8.64396 19.1275C9.12618 19.1275 9.58864 19.3166 9.92962 19.6532C10.2706 19.9898 10.4622 20.4464 10.4622 20.9224C10.4622 23.0524 11.102 25.1345 12.3007 26.9055C13.4994 28.6766 15.2032 30.0569 17.1966 30.872C19.19 31.6871 21.3835 31.9004 23.4997 31.4848C25.6158 31.0693 27.5597 30.0436 29.0854 28.5375C30.611 27.0314 31.65 25.1125 32.071 23.0234C32.4919 20.9344 32.2759 18.769 31.4502 16.8012C30.6245 14.8333 29.2262 13.1514 27.4322 11.968C25.6382 10.7847 23.529 10.1531 21.3714 10.1531H7.12394L10.384 13.3713C10.7152 13.7098 10.8984 14.1632 10.8943 14.6338C10.8902 15.1045 10.6989 15.5546 10.3618 15.8874C10.0247 16.2202 9.56869 16.409 9.09197 16.4131C8.61524 16.4172 8.15596 16.2362 7.81304 15.9093L1.44934 9.62717C1.10848 9.29058 0.916992 8.83412 0.916992 8.35818C0.916992 7.88224 1.10848 7.42579 1.44934 7.08919L7.81304 0.807075C8.15401 0.470585 8.61639 0.281555 9.09851 0.281555C9.58063 0.281555 10.043 0.470585 10.384 0.807075Z" fill="black"/>
</svg>
