<svg width="35" height="35" viewBox="0 0 35 35" fill="none" xmlns="http://www.w3.org/2000/svg">
<path d="M32.2778 35L20.0278 22.75C19.0556 23.5278 17.9375 24.1435 16.6736 24.5972C15.4097 25.0509 14.0648 25.2778 12.6389 25.2778C9.10648 25.2778 6.11722 24.0541 3.67111 21.6067C1.225 19.1593 0.0012963 16.17 0 12.6389C0 9.10648 1.2237 6.11722 3.67111 3.67111C6.11852 1.225 9.10778 0.0012963 12.6389 0C16.1713 0 19.1612 1.2237 21.6086 3.67111C24.056 6.11852 25.2791 9.10778 25.2778 12.6389C25.2778 14.0648 25.0509 15.4097 24.5972 16.6736C24.1435 17.9375 23.5278 19.0556 22.75 20.0278L35 32.2778L32.2778 35ZM12.6389 21.3889C15.0694 21.3889 17.1357 20.5385 18.8378 18.8378C20.5398 17.137 21.3902 15.0707 21.3889 12.6389C21.3889 10.2083 20.5385 8.14269 18.8378 6.44194C17.137 4.7412 15.0707 3.89019 12.6389 3.88889C10.2083 3.88889 8.14269 4.73991 6.44194 6.44194C4.7412 8.14398 3.89019 10.2096 3.88889 12.6389C3.88889 15.0694 4.73991 17.1357 6.44194 18.8378C8.14398 20.5398 10.2096 21.3902 12.6389 21.3889ZM10.6944 18.4722V14.5833H6.80556V10.6944H10.6944V6.80556H14.5833V10.6944H18.4722V14.5833H14.5833V18.4722H10.6944Z" fill="black"/>
</svg>
